<svg width="179" height="33" viewBox="0 0 179 33" fill="none" xmlns="http://www.w3.org/2000/svg">
<path d="M0.584 3.056V0.464001H16.424V3.056L12.44 3.44C12.408 5.392 12.376 7.376 12.344 9.392C12.344 11.376 12.344 13.36 12.344 15.344V17.888C12.344 19.616 12.344 21.456 12.344 23.408C12.376 25.328 12.408 27.28 12.44 29.264H20.744L22.04 22.592H25.928L25.448 32H0.584V29.408L4.184 29.024C4.248 27.072 4.28 25.168 4.28 23.312C4.28 21.424 4.28 19.696 4.28 18.128V15.344C4.28 13.36 4.28 11.376 4.28 9.392C4.28 7.376 4.248 5.392 4.184 3.44L0.584 3.056Z" fill="#141414"/>
<path d="M40.4277 32.72C37.9317 32.72 35.7718 32.208 33.9478 31.184C32.1238 30.128 30.7157 28.672 29.7237 26.816C28.7317 24.928 28.2358 22.752 28.2358 20.288C28.2358 17.824 28.7637 15.68 29.8197 13.856C30.9077 12.032 32.3798 10.608 34.2358 9.584C36.0918 8.56 38.1557 8.048 40.4277 8.048C42.6997 8.048 44.7478 8.544 46.5718 9.536C48.4278 10.528 49.8998 11.952 50.9878 13.808C52.0758 15.632 52.6198 17.792 52.6198 20.288C52.6198 22.784 52.1238 24.96 51.1318 26.816C50.1398 28.672 48.7317 30.128 46.9077 31.184C45.0837 32.208 42.9237 32.72 40.4277 32.72ZM40.4277 30.224C41.7717 30.224 42.7798 29.44 43.4518 27.872C44.1238 26.304 44.4598 23.824 44.4598 20.432C44.4598 17.008 44.1238 14.512 43.4518 12.944C42.7798 11.376 41.7717 10.592 40.4277 10.592C39.0517 10.592 38.0278 11.376 37.3558 12.944C36.6838 14.512 36.3478 17.008 36.3478 20.432C36.3478 23.824 36.6838 26.304 37.3558 27.872C38.0278 29.44 39.0517 30.224 40.4277 30.224Z" fill="#141414"/>
<path d="M55.2804 32V29.744L57.9204 29.216C57.9524 28.032 57.9684 26.768 57.9684 25.424C57.9684 24.08 57.9684 22.912 57.9684 21.92V19.088C57.9684 18.192 57.9524 17.456 57.9204 16.88C57.9204 16.304 57.9044 15.776 57.8724 15.296C57.8724 14.784 57.8564 14.208 57.8244 13.568L54.8964 13.136V11.264L64.3524 8.048L65.2164 8.576L65.6484 14.24C66.3204 12.192 67.2644 10.656 68.4804 9.632C69.6964 8.576 70.8964 8.048 72.0804 8.048C73.1364 8.048 74.0484 8.352 74.8164 8.96C75.5844 9.536 76.0644 10.416 76.2564 11.6C76.2244 12.848 75.8884 13.824 75.2484 14.528C74.6084 15.2 73.8084 15.536 72.8484 15.536C71.5044 15.536 70.2724 14.784 69.1524 13.28L68.8644 12.896C68.1604 13.568 67.5044 14.416 66.8964 15.44C66.3204 16.464 65.9044 17.536 65.6484 18.656V21.92C65.6484 22.912 65.6484 24.048 65.6484 25.328C65.6484 26.608 65.6644 27.808 65.6964 28.928L69.4884 29.744V32H55.2804Z" fill="#141414"/>
<path d="M88.748 10.544C87.852 10.544 87.02 11.104 86.252 12.224C85.516 13.312 85.1 15.328 85.004 18.272H89.084C90.236 18.272 91.004 18.048 91.388 17.6C91.804 17.12 92.012 16.336 92.012 15.248C92.012 13.648 91.692 12.464 91.052 11.696C90.412 10.928 89.644 10.544 88.748 10.544ZM88.844 32.72C86.508 32.72 84.444 32.24 82.652 31.28C80.86 30.288 79.452 28.88 78.428 27.056C77.404 25.2 76.892 22.992 76.892 20.432C76.892 17.744 77.484 15.488 78.668 13.664C79.884 11.808 81.436 10.416 83.324 9.488C85.212 8.528 87.18 8.048 89.228 8.048C91.34 8.048 93.132 8.496 94.604 9.392C96.108 10.288 97.244 11.504 98.012 13.04C98.78 14.544 99.164 16.272 99.164 18.224C99.164 19.152 99.068 20 98.876 20.768H85.004C85.164 23.296 85.852 25.168 87.068 26.384C88.316 27.568 89.772 28.16 91.436 28.16C92.748 28.16 93.868 27.92 94.796 27.44C95.724 26.928 96.54 26.304 97.244 25.568L98.924 27.104C97.932 28.992 96.588 30.4 94.892 31.328C93.196 32.256 91.18 32.72 88.844 32.72Z" fill="#141414"/>
<path d="M101.875 32V29.744L104.467 29.168C104.499 28.016 104.515 26.768 104.515 25.424C104.515 24.08 104.515 22.912 104.515 21.92V19.136C104.515 17.824 104.499 16.816 104.467 16.112C104.467 15.376 104.435 14.528 104.371 13.568L101.443 13.136V11.264L110.899 8.048L111.763 8.576L112.051 12.032C113.299 10.56 114.531 9.536 115.747 8.96C116.995 8.352 118.323 8.048 119.731 8.048C121.811 8.048 123.475 8.736 124.723 10.112C126.003 11.488 126.643 13.552 126.643 16.304V21.92C126.643 22.976 126.643 24.176 126.643 25.52C126.643 26.832 126.659 28.08 126.691 29.264L129.091 29.744V32H116.419V29.744L118.915 29.216C118.947 28.032 118.963 26.784 118.963 25.472C118.963 24.128 118.963 22.944 118.963 21.92V16.88C118.963 15.344 118.755 14.272 118.339 13.664C117.923 13.024 117.251 12.704 116.323 12.704C115.075 12.704 113.699 13.28 112.195 14.432V21.92C112.195 22.912 112.195 24.096 112.195 25.472C112.195 26.816 112.211 28.08 112.243 29.264L114.499 29.744V32H101.875Z" fill="#141414"/>
<path d="M130.973 32V30.128L142.973 10.976H136.445L135.149 16.304L131.261 16.112L131.645 8.816H151.229V10.64L139.613 29.792H146.429L147.821 23.984H151.709L151.229 32H130.973Z" fill="#141414"/>
<path d="M165.959 32.72C163.463 32.72 161.303 32.208 159.479 31.184C157.655 30.128 156.247 28.672 155.255 26.816C154.263 24.928 153.767 22.752 153.767 20.288C153.767 17.824 154.295 15.68 155.351 13.856C156.439 12.032 157.911 10.608 159.767 9.584C161.623 8.56 163.687 8.048 165.959 8.048C168.231 8.048 170.279 8.544 172.103 9.536C173.959 10.528 175.431 11.952 176.519 13.808C177.607 15.632 178.151 17.792 178.151 20.288C178.151 22.784 177.655 24.96 176.663 26.816C175.671 28.672 174.263 30.128 172.439 31.184C170.615 32.208 168.455 32.72 165.959 32.72ZM165.959 30.224C167.303 30.224 168.311 29.44 168.983 27.872C169.655 26.304 169.991 23.824 169.991 20.432C169.991 17.008 169.655 14.512 168.983 12.944C168.311 11.376 167.303 10.592 165.959 10.592C164.583 10.592 163.559 11.376 162.887 12.944C162.215 14.512 161.879 17.008 161.879 20.432C161.879 23.824 162.215 26.304 162.887 27.872C163.559 29.44 164.583 30.224 165.959 30.224Z" fill="#141414"/>
</svg>
